<svg width="166" height="46" viewBox="0 0 166 46" fill="none" xmlns="http://www.w3.org/2000/svg">
<g clip-path="url(#clip0_1153_156)">
<path fill-rule="evenodd" clip-rule="evenodd" d="M166.001 11.0952C163.068 9.8992 160.191 8.6112 157.24 7.544C142.503 3.0544 137.154 8.8688 136.969 8.7768C134.184 7.2864 131.178 6.6424 128.079 6.4032C125.128 6.1824 122.158 6.1456 119.097 6.0168V4.416C116.92 4.692 98.6232 6.9184 98.5494 6.7528C96.2254 3.2936 93.8461 0 93.8092 0C92.8501 1.7664 88.0546 8.2248 86.579 10.8928L84.0152 5.9248L72.9854 9.384C72.6166 8.6848 72.303 8.004 71.8972 7.3784C71.6943 7.0656 58.5434 3.9928 58.359 4.508C57.5106 6.8448 55.6477 11.6472 55.4817 11.7208V4.3792C53.9508 4.5816 33.5697 7.084 33.459 6.9368C31.6699 4.3056 29.0323 3.128 25.989 2.6312C22.0972 1.9872 18.2054 2.3184 14.3137 2.8336C9.46278 3.4592 4.741 4.7472 0.000774594 5.9616C-0.0730032 5.9616 5.14677 35.696 5.71855 38.7504L9.18611 38.1248L10.2928 44.1968C18.851 43.3504 27.3354 42.504 34.9161 37.7936L35.2112 39.3392C36.5208 39.1736 46.905 37.812 50.7968 37.3152C51.0734 37.2784 56.4777 39.4864 58.8754 40.48C59.1521 40.5904 59.4288 40.7008 59.7608 40.8296L64.3534 30.0288L68.1714 40.6456C71.473 38.5112 74.6823 36.4136 77.9839 34.2608L83.757 46.0184L96.8157 25.8336L98.7892 39.4128C100.32 39.2104 111.036 37.6832 114.947 37.2784C116.514 37.1128 125.663 37.8488 125.903 37.8488L126.382 34.408L138.131 44.2888C138.74 43.5896 143.259 38.2904 144.439 36.8184C144.845 36.3032 150.378 39.836 156.465 38.4192C160.228 37.2416 162.847 34.868 163.714 30.9304C164.193 28.7408 163.382 26.0176 162.423 24.012C162.257 23.6624 165.89 11.3712 165.964 11.0768L166.001 11.0952ZM35.3772 27.7104C35.3772 31.4456 29.0508 35.9168 15.3281 37.4072L14.7194 33.9848C24.6979 31.7768 29.0139 28.612 29.0139 26.6984C29.0139 24.6744 25.5094 23.3496 13.1517 24.6008L13.9448 30.9488L10.6617 31.556L6.64077 9.568C18.021 6.6608 29.309 6.072 29.309 10.5984C29.309 14.2968 25.4172 18.4 17.5599 21.6936C29.1061 20.2952 35.3957 23.2208 35.3957 27.692L35.3772 27.7104ZM50.7783 31.0408L40.3941 32.4024L37.4061 11.868L50.0959 10.1936V14.0576L41.7037 14.996L42.2017 19.044L49.1737 18.5288L50.0774 24.3616L42.5521 24.9688L43.1608 28.7408L50.4463 28.336L50.7599 31.0408H50.7783ZM76.9141 27.8024L71.4914 31.3352L68.2637 22.3192H61.5314L57.0863 32.8256L54.3012 31.6664L62.5643 9.8992L68.1161 11.1504L76.9326 27.8208L76.9141 27.8024ZM97.0186 14.996L84.8268 33.856L75.1803 14.1496L81.4514 12.1808L86.6897 22.4296L94.0306 9.2368L97.0186 15.0144V14.996ZM114.449 31.0408L104.009 32.4576L101.021 11.9416L113.692 10.2672V14.1312L105.319 15.0696L105.817 19.044L112.789 18.5288L113.692 24.4168L106.167 25.024L106.776 28.796L114.043 28.3912L114.412 31.0592L114.449 31.0408ZM130.348 22.4848L141.211 31.7216L137.836 35.696L125.128 25.0056C124.095 25.4288 123.044 25.8152 121.974 26.1648L121.31 31.28L118.303 31.0592L119.908 11.2056C129.536 10.8192 136.287 12.3832 136.287 15.5848C136.287 17.6824 133.52 20.2216 130.348 22.5032V22.4848ZM159.582 13.7264L158.18 19.0256C154.676 17.6088 150.895 16.5416 148.737 16.5416C146.579 16.5416 146.265 17.2592 146.265 17.6824C146.265 21.344 158.568 22.5768 158.568 28.4832C158.568 31.0224 156.317 32.6784 152.333 32.8256C148.497 32.9544 144.79 30.9672 141.064 27.7104L142.373 25.76C144.827 27.5448 147.667 28.7592 150.655 29.3112C152.721 29.4952 153.717 28.9432 153.717 27.7104C153.717 23.6624 140.123 23.4416 140.123 16.1184C140.123 13.3216 142.373 10.5064 147.187 10.5064C152.573 10.5064 159.582 13.708 159.582 13.708V13.7264ZM130.385 15.8424C130.329 14.4256 128.393 13.3952 123.542 13.4136L122.251 22.3928C126.825 20.5896 130.385 17.8848 130.385 15.8424ZM62.0848 20.1664L67.821 20.5528L64.7592 13.2664L62.0848 20.1664ZM12.5983 20.0376C16.2872 18.216 20.6586 14.4256 20.6586 12.144C20.6586 10.3408 18.7034 9.6232 11.3994 11.0216L12.5614 20.0376H12.5983Z" fill="#006DDF"/>
</g>
<defs>
<clipPath id="clip0_1153_156">
<rect width="166" height="46" fill="white"/>
</clipPath>
</defs>
</svg>
