<svg width="110" height="43" viewBox="0 0 110 43" fill="none" xmlns="http://www.w3.org/2000/svg">
<g clip-path="url(#clip0_1153_558)">
<path fill-rule="evenodd" clip-rule="evenodd" d="M21.9429 34.0228H15.3043C11.7148 34.0228 9.57267 32.4403 9.57267 29.2368C9.57267 26.2649 11.0007 23.9877 13.0657 22.0965C14.9376 20.3982 17.0218 19.5684 19.3376 19.5684H22.5025L26.6516 11.0965H19.1832C13.6253 11.0965 9.03232 12.8912 5.40425 16.4421C1.79548 20.0123 -0.0185547 24.4316 -0.0185547 29.7C-0.0185547 33.714 1.06215 36.8211 3.20425 39.0018C5.48145 41.3175 8.82004 42.4754 13.22 42.4754H24.8183L21.9429 34.0228ZM54.306 11.0772H44.3481V34.0035H43.2481C40.7972 34.0035 39.1376 33.7333 38.2692 33.2316C36.9955 32.4982 36.3393 30.993 36.3393 28.7158C36.3393 26.4386 36.9376 23.5632 38.1534 19.8386C38.2499 19.607 39.3306 16.693 41.3762 11.1158H31.1674C27.5972 18.7 25.8218 24.7982 25.8218 29.4105C25.8218 38.1333 30.0095 42.514 38.3657 42.514H54.2867V11.0772H54.306ZM84.1218 14.7632C81.9025 12.293 78.4867 11.0772 73.8551 11.0772H68.6639V0H58.706V42.4561H68.9727C73.8165 42.4561 78.0236 40.5456 81.5744 36.7053C85.1446 32.8842 86.92 28.3491 86.92 23.1193C86.92 19.6263 85.9937 16.8281 84.1218 14.7439V14.7632ZM74.4727 30.5105C72.9481 32.5175 71.0183 33.6754 68.6639 33.9842V19.5298H71.8867C75.1288 19.5298 76.7692 20.9579 76.7692 23.8333C76.7692 26.2649 76.0165 28.4842 74.492 30.4912L74.4727 30.5105ZM106.971 27.5965L102.532 22.0386C101.973 21.3439 101.702 20.8228 101.702 20.4754C101.702 19.6842 102.474 19.2789 104.038 19.2789H109.538V11.0772H98.1709C95.199 11.0772 93.4622 12.0035 91.9569 13.8754C90.8569 15.2263 90.2972 16.693 90.2972 18.2947C90.2972 20.6877 90.799 23.0421 92.8446 25.3579L97.92 31.1281C98.5762 31.9 98.9043 32.5368 98.9043 33.0579C98.9043 33.6754 98.4411 34.0035 97.5148 34.0035H88.599L83.0025 42.4754H102.185C104.501 42.4754 106.392 41.7035 107.859 40.1982C109.325 38.693 110.039 36.8789 110.039 34.7947C110.039 32.5368 109.036 30.1439 107.01 27.6158L106.971 27.5965Z" fill="#25B755"/>
</g>
<defs>
<clipPath id="clip0_1153_558">
<rect width="110" height="42.4561" fill="white"/>
</clipPath>
</defs>
</svg>
