<svg width="168" height="18" viewBox="0 0 168 18" fill="none" xmlns="http://www.w3.org/2000/svg">
<g clip-path="url(#clip0_1153_100)">
<path fill-rule="evenodd" clip-rule="evenodd" d="M30.3603 0.471072L24.9007 7.16391L19.4134 0.471072H16.351L23.3487 8.92373L15.8245 17.9999H18.8868L24.9007 10.739L30.8591 17.9999H33.8799L26.3972 8.92373L33.3949 0.471072H30.3603ZM42.3464 17.9999V10.4064H44.2032C45.8522 10.4064 47.127 10.2263 48.0139 9.86599C48.873 9.53343 49.6074 8.93759 50.1062 8.14775C50.6189 7.35791 50.8684 6.45722 50.8684 5.44567C50.8684 3.92142 50.3695 2.71588 49.3718 1.81518C48.3741 0.91449 47.0439 0.457216 45.3811 0.457216H39.8383V17.9999H42.3603H42.3464ZM48.2633 5.37638C48.2633 6.27708 47.9861 6.95606 47.4319 7.44105C46.8776 7.92604 46.1016 8.1616 45.0762 8.1616H42.3326V2.68816H44.9238C47.1409 2.68816 48.2494 3.58886 48.2494 5.39024L48.2633 5.37638ZM57.3118 0.457216V17.9722H67.6905V15.6859H59.806V0.457216H57.2979M74.1617 2.56345C72.388 4.2817 71.5012 6.44336 71.5012 9.0623C71.5012 11.6812 72.3741 13.732 74.1339 15.4226C75.8938 17.1131 78.0831 17.9584 80.7298 17.9584C83.3764 17.9584 85.7737 17.1131 87.5889 15.4226C89.4042 13.732 90.3187 11.5842 90.3187 9.00687C90.3187 6.4295 89.418 4.2817 87.6166 2.56345C85.8152 0.845206 83.5704 -0.013916 80.8684 -0.013916C78.1663 -0.013916 75.9353 0.845206 74.1617 2.54959M85.7737 4.2817C87.0762 5.54267 87.7275 7.10849 87.7275 8.9653C87.7275 10.8221 87.0762 12.4711 85.7737 13.7459C84.4711 15.0207 82.836 15.6581 80.8822 15.6581C78.9284 15.6581 77.321 15.0346 76.0323 13.7736C74.7436 12.5265 74.0924 10.9468 74.0924 9.0623C74.0924 7.17777 74.7436 5.51495 76.0323 4.26784C77.321 3.02073 78.97 2.38331 80.9654 2.38331C82.9607 2.38331 84.4711 3.02073 85.7737 4.2817ZM100.864 17.9722V10.351H101.515C102.333 10.351 102.915 10.448 103.261 10.6281C103.607 10.8221 103.995 11.127 104.425 11.5427C104.854 11.9722 105.326 12.5404 105.852 13.2609L106.697 14.6327L107.473 15.9076L107.958 16.6004C108.028 16.6974 108.083 16.7667 108.111 16.8083L108.873 17.9584H111.852L110.924 16.7113C110.411 15.9768 109.912 15.2286 109.455 14.4665C108.485 12.8868 107.737 11.7782 107.196 11.1408C106.656 10.5034 106.115 10.0046 105.561 9.63043C106.517 9.27015 107.238 8.70202 107.751 7.96761C108.263 7.21934 108.513 6.34636 108.513 5.32096C108.513 3.82442 107.986 2.63274 106.961 1.75976C105.921 0.886777 104.522 0.443359 102.748 0.443359H98.3695V17.9584H100.878L100.864 17.9722ZM104.259 2.85444C104.785 3.03458 105.201 3.35329 105.492 3.79671C105.783 4.24013 105.935 4.73897 105.935 5.29324C105.935 5.84752 105.797 6.34636 105.533 6.78978C105.27 7.2332 104.896 7.5519 104.439 7.77361C103.968 7.99532 103.095 8.09232 101.82 8.09232H100.864V2.57731H101.612C102.845 2.57731 103.718 2.67431 104.245 2.85444H104.259ZM118.85 0.471072V17.9584H129.007V15.7274H121.358V10.2817H128.522V8.03689H121.358V2.71588H128.771V0.471072H118.85ZM140.411 17.9722V10.351H141.062C141.88 10.351 142.462 10.448 142.808 10.6281C143.155 10.8221 143.543 11.127 143.972 11.5427C144.402 11.9722 144.873 12.5404 145.4 13.2609L146.245 14.6327L147.021 15.9076L147.506 16.6004C147.575 16.6974 147.63 16.7667 147.658 16.8083L148.42 17.9584H151.4L150.471 16.7113C149.958 15.9768 149.46 15.2286 149.002 14.4665C148.032 12.8868 147.284 11.7782 146.744 11.1408C146.203 10.5034 145.663 10.0046 145.109 9.63043C146.065 9.27015 146.785 8.70202 147.298 7.96761C147.811 7.21934 148.06 6.34636 148.06 5.32096C148.06 3.82442 147.533 2.63274 146.508 1.75976C145.469 0.886777 144.069 0.443359 142.296 0.443359H137.917V17.9584H140.425L140.411 17.9722ZM143.792 2.85444C144.319 3.03458 144.734 3.35329 145.025 3.79671C145.316 4.24013 145.469 4.73897 145.469 5.29324C145.469 5.84752 145.33 6.34636 145.067 6.78978C144.804 7.21934 144.43 7.56576 143.972 7.77361C143.501 7.99532 142.628 8.09232 141.353 8.09232H140.397V2.57731H141.145C142.379 2.57731 143.252 2.67431 143.778 2.85444H143.792ZM165.09 13.4549C165.09 14.12 164.827 14.6604 164.3 15.1039C163.774 15.5473 163.122 15.7551 162.346 15.7551C160.573 15.7551 159.007 14.896 157.649 13.1778V16.3648C159.076 17.4318 160.642 17.9584 162.374 17.9584C163.871 17.9584 165.104 17.515 166.032 16.642C166.975 15.769 167.446 14.6189 167.446 13.2193C167.446 11.2517 166.379 9.61657 164.245 8.34174L162.333 7.20548C161.473 6.70664 160.85 6.22165 160.462 5.76438C160.074 5.3071 159.88 4.82211 159.88 4.29555C159.88 3.69971 160.143 3.21472 160.67 2.84059C161.196 2.46645 161.861 2.27246 162.693 2.27246C164.148 2.27246 165.506 2.88216 166.767 4.0877V1.26091C165.589 0.457216 164.176 0.0276544 162.748 0.0276544C161.224 0.0276544 159.977 0.457216 159.021 1.31634C158.065 2.17546 157.594 3.29786 157.594 4.66969C157.594 5.58424 157.843 6.40179 158.356 7.10849C158.854 7.81518 159.714 8.53574 160.905 9.25629L162.804 10.4203C164.342 11.3764 165.104 12.3879 165.104 13.4549M0 0.471072V17.9584H10.157V15.7274H2.50808V10.2817H9.67206V8.03689H2.50808V2.71588H9.92148V0.471072H0Z" fill="#003982"/>
</g>
<defs>
<clipPath id="clip0_1153_100">
<rect width="167.446" height="18" fill="white"/>
</clipPath>
</defs>
</svg>
