<svg width="130" height="29" viewBox="0 0 130 29" fill="none" xmlns="http://www.w3.org/2000/svg">
<g clip-path="url(#clip0_1153_59)">
<path fill-rule="evenodd" clip-rule="evenodd" d="M5.16178 28.506H0V14.8338C0 12.7109 0.729815 11.082 2.20271 9.94705C3.67561 8.81215 5.63948 8.23803 8.10758 8.23803C9.71318 8.23803 11.1197 8.49171 12.3538 8.99908C13.5878 9.50644 14.5432 10.2541 15.2067 11.2555C15.8834 12.2436 16.2152 13.4452 16.2152 14.8338V28.506H11.0534V16.6229C11.0534 15.5948 10.8013 14.8071 10.3103 14.2597C9.80606 13.7122 9.07625 13.4452 8.10758 13.4452C7.13892 13.4452 6.43564 13.7256 5.91814 14.273C5.40063 14.8338 5.14851 15.6082 5.14851 16.6229V28.506M32.9744 19.547L38.1892 20.1211C37.8442 21.9102 37.194 23.4724 36.2386 24.8076C35.2832 26.1294 34.0227 27.1975 32.563 27.9052C31.0636 28.6395 29.4182 29.0133 27.6136 29.0133C25.6364 29.0133 23.8849 28.546 22.3854 27.6248C20.8993 26.7169 19.705 25.4217 18.9088 23.8729C18.0994 22.2974 17.6881 20.5483 17.6881 18.6257C17.6881 16.703 18.0994 14.954 18.9088 13.3918C19.705 11.843 20.8993 10.5479 22.3854 9.63996C23.8849 8.71869 25.6364 8.25138 27.6136 8.25138C28.8741 8.25138 30.0418 8.4116 31.1034 8.73204C32.1782 9.05249 33.0805 9.47974 33.8369 10.0138C34.58 10.5345 35.2302 11.1621 35.8008 11.8697C36.3448 12.5506 36.796 13.3117 37.1277 14.1128L24.6279 23.6059L22.1333 20.308L29.803 14.3531C29.2722 13.7523 28.4363 13.4586 27.2553 13.4586C26.4459 13.4586 25.6895 13.6855 25.0128 14.1529C24.3228 14.6202 23.7787 15.2744 23.4204 16.0355C23.0356 16.8499 22.8366 17.7311 22.8498 18.6257C22.8498 19.4401 23.0622 20.268 23.4735 21.0691C23.8716 21.8702 24.482 22.5378 25.2118 23.0318C25.9549 23.5391 26.8307 23.7928 27.8126 23.7928C28.6618 23.7928 29.458 23.6192 30.2011 23.2855C31.7005 22.6045 32.7488 21.2026 32.9744 19.5603M44.8637 8.73204H48.6057V13.779H44.8637V21.0958C44.8637 21.8301 45.023 22.3775 45.3414 22.7514C45.6599 23.1252 46.0978 23.3122 46.6286 23.3122H48.5924V28.5193H45.8987C43.6562 28.5193 42.0639 27.8918 41.1085 26.6501C40.1664 25.4084 39.6887 23.6059 39.6887 21.2693V3.41805H44.8505V8.73204M61.3576 8.73204H66.7715V20.6151C66.7715 22.7247 67.6605 23.7795 69.4253 23.7795C71.3096 23.7795 72.2384 22.7247 72.2384 20.6151V8.73204H77.6523V21.9102C77.6523 23.4457 77.3206 24.7541 76.6439 25.8223C75.9937 26.8771 75.0383 27.7049 73.9104 28.2122C72.7559 28.733 71.4953 29.0133 70.2215 29C67.7268 29 65.617 27.8918 63.8787 25.6621C62.4722 27.8918 60.4685 29 57.8677 29C56.554 29 55.3333 28.7463 54.1921 28.2122C53.0642 27.7049 52.1221 26.8637 51.4586 25.8223C50.7819 24.7541 50.4369 23.4457 50.4369 21.9102V8.73204H55.8508V20.6151C55.8508 22.7247 56.7929 23.7795 58.6639 23.7795C59.5927 23.7795 60.2695 23.5258 60.6941 22.9917C61.1187 22.471 61.3177 21.6699 61.3177 20.6151V8.73204M89.0109 8.22468C90.9881 8.22468 92.7396 8.69199 94.239 9.61326C95.7252 10.5212 96.9195 11.8163 97.7156 13.3651C98.525 14.9406 98.9364 16.6897 98.9364 18.5856C98.9364 20.4816 98.525 22.244 97.7156 23.8195C96.9327 25.3817 95.7252 26.6768 94.239 27.5847C92.7396 28.506 90.9881 28.9733 89.0109 28.9733C87.0338 28.9733 85.2822 28.506 83.7961 27.5847C82.3232 26.6768 81.1156 25.3683 80.3327 23.8195C79.5233 22.2307 79.112 20.4949 79.112 18.5723C79.112 16.6496 79.5233 14.9273 80.3327 13.3517C81.1156 11.8029 82.3232 10.5078 83.7961 9.59991C85.2955 8.66529 87.0338 8.21133 89.0109 8.21133M89.0109 13.4319C88.0555 13.4319 87.2195 13.6321 86.5163 14.0327C85.7997 14.4332 85.2557 15.0341 84.8576 15.8352C84.4595 16.6363 84.2738 17.5576 84.2738 18.599C84.2738 20.2279 84.6984 21.4963 85.5609 22.4042C86.4234 23.3122 87.5778 23.7661 89.0109 23.7661C89.9663 23.7661 90.8156 23.5658 91.5321 23.1653C92.2486 22.7647 92.806 22.1639 93.1908 21.3628C93.5756 20.5617 93.7746 19.6404 93.7746 18.599C93.7746 17.5576 93.5756 16.6363 93.1908 15.8352C92.8325 15.0741 92.2486 14.4466 91.5321 14.0327C90.8156 13.6321 89.9663 13.4319 89.0109 13.4319ZM106.128 28.506H100.635V8.73204H105.518V12.4705H105.598C106.049 11.2021 106.699 10.2141 107.588 9.5198C108.424 8.83886 109.486 8.46501 110.56 8.47836H111.648V14.0193H110.414C109.101 14.0193 108.066 14.4466 107.296 15.3011C106.526 16.1556 106.142 17.3306 106.142 18.826V28.506M118.403 28.506H113.228V0H118.403V15.4079H119.875C120.313 15.4079 120.738 15.221 121.149 14.8605C121.574 14.5 121.919 13.9793 122.211 13.325L124.241 8.73204H129.987L127.943 13.325C127.505 14.2864 127.147 14.9807 126.855 15.448C126.563 15.9019 126.258 16.2624 125.926 16.5161C125.595 16.7698 125.183 16.9434 124.666 17.0368V17.1703C126.523 17.4908 127.824 18.1317 128.527 19.1197C129.23 20.0944 129.589 21.5631 129.589 23.5124V28.5193H124.427V23.9664C124.427 22.7113 124.161 21.8034 123.644 21.2693C123.126 20.7219 122.344 20.4549 121.309 20.4549H118.376V28.5327" fill="black"/>
</g>
<defs>
<clipPath id="clip0_1153_59">
<rect width="130" height="29" fill="white"/>
</clipPath>
</defs>
</svg>
