<svg width="148" height="27" viewBox="0 0 148 27" fill="none" xmlns="http://www.w3.org/2000/svg">
<g clip-path="url(#clip0_1153_331)">
<path fill-rule="evenodd" clip-rule="evenodd" d="M106.402 0.525354H103.344C102.468 0.525354 102.149 0.82783 102.149 1.65566V8.00767C102.149 8.8355 102.516 9.13797 103.344 9.13797H107.708C108.536 9.13797 108.743 9.34493 108.743 10.1728V25.806C108.743 26.6338 109.045 27 109.889 27H116.26C117.088 27 117.406 26.6338 117.406 25.806V10.1728C117.406 9.34493 117.613 9.13797 118.442 9.13797H122.773C123.602 9.13797 123.968 8.81958 123.968 8.00767V1.65566C123.968 0.82783 123.602 0.525354 122.773 0.525354H117.12M61.8408 18.1327C59.197 18.1327 57.27 16.0631 57.27 13.4363C57.27 10.8096 59.197 8.73998 61.8408 8.73998C64.4845 8.73998 66.4115 10.8096 66.4115 13.4363C66.4115 16.0631 64.5004 18.1327 61.8408 18.1327ZM61.8408 0C54.3237 0 48.2081 5.15802 48.2081 13.4363C48.2081 21.7146 54.3237 26.8726 61.8408 26.8726C69.3578 26.8726 75.4734 21.7146 75.4734 13.4363C75.4734 5.17394 69.3578 0 61.8408 0ZM37.6333 18.1327C34.9896 18.1327 33.0785 16.0153 33.0785 13.3886C33.0785 10.7618 34.9896 8.73998 37.6333 8.73998C39.0348 8.73998 39.9107 9.20165 40.8026 10.0295C41.6307 10.8573 42.2996 10.8096 43.1915 10.1409L48.3833 6.27241C48.6859 6.01769 48.9089 5.44458 48.5426 5.03066C45.5007 1.28951 41.36 0 37.6333 0C30.1162 0 23.9847 5.17394 23.9847 13.4363C23.9847 21.6987 30.1003 26.8726 37.6174 26.8726C41.344 26.8726 45.5007 25.5831 48.5107 21.8579C48.877 21.444 48.67 20.8709 48.3515 20.6162L43.1596 16.7476C42.2837 16.079 41.5989 16.0313 40.7707 16.8432C39.8948 17.671 39.0029 18.1327 37.6014 18.1327M91.4471 27L86.1438 26.8726C81.1112 26.8726 77.0182 23.4658 77.0182 16.6999V1.70342C77.0182 0.87559 77.3208 0.509434 78.1649 0.509434H84.5512C85.3793 0.509434 85.6979 0.87559 85.6979 1.70342V13.4841C85.6979 15.7606 86.5101 17.9735 88.899 17.9735C91.1286 17.9735 91.9408 15.888 91.9408 13.6274V1.8467C91.9408 1.01887 92.2593 0.652712 93.0875 0.652712H99.4579C100.286 0.652712 100.605 1.01887 100.605 1.8467V16.8272C100.605 23.5932 96.5116 27 91.479 27M136.677 27C143.238 27 148 23.6887 148 18.3237C148 12.9587 144.003 11.0324 138.827 10.2046C136.263 9.79068 134.224 9.94988 134.224 8.77182C134.224 8.16686 134.893 7.70519 136.422 7.70519C138.11 7.70519 139.958 8.42158 141.948 9.34493C142.872 9.85436 143.334 9.59965 143.684 9.04245L146.408 4.25059C146.71 3.64564 146.567 3.07252 146.105 2.81781C143.127 1.13031 140.165 0.477594 136.374 0.477594C130.641 0.477594 125.417 3.6934 125.417 8.89918C125.417 14.4552 129.51 16.6521 135.61 17.5277C138.222 17.8939 139.034 18.1486 139.034 18.9127C139.034 19.6769 138.015 20.0271 136.629 20.0271C134.431 20.0271 131.708 19.1038 129.558 17.8302C128.634 17.273 128.172 17.4163 127.822 17.9894L125.369 22.5265C125.067 23.1474 125.067 23.5932 125.672 23.9593C128.539 25.9015 132.695 27.0159 136.677 27.0159M11.7217 27C18.3947 27 23.2362 23.625 23.2362 18.1804C23.2362 12.7359 19.1751 10.7618 13.9036 9.91804C11.2917 9.50413 9.20544 9.66333 9.20544 8.46934C9.20544 7.84847 9.89025 7.38679 11.451 7.38679C13.171 7.38679 15.0503 8.1191 17.0729 9.04245C18.0125 9.56781 18.4743 9.29717 18.8406 8.72406L21.5958 3.83668C21.9144 3.2158 21.7551 2.64269 21.2773 2.38797C18.2832 0.668632 15.2573 0 11.4032 0C5.57432 0 0.255046 3.27948 0.255046 8.56486C0.255046 14.2164 4.42765 16.4611 10.6228 17.3367C13.2825 17.7028 14.1106 17.9576 14.1106 18.7376C14.1106 19.5177 13.0754 19.8838 11.658 19.8838C9.41248 19.8838 6.65728 18.9446 4.4595 17.6551C3.51987 17.082 3.05802 17.2412 2.69172 17.8143L0.207268 22.431C-0.111252 23.0519 -0.111252 23.5295 0.525787 23.8797C3.44024 25.8538 7.66062 27 11.7377 27" fill="#205B41"/>
</g>
<defs>
<clipPath id="clip0_1153_331">
<rect width="148" height="27" fill="white"/>
</clipPath>
</defs>
</svg>
