<svg width="174" height="39" viewBox="0 0 174 39" fill="none" xmlns="http://www.w3.org/2000/svg">
<g clip-path="url(#clip0_1153_32)">
<path d="M82.1217 0C79.406 0 78.0888 1.64125 78.0888 3.5425C77.8774 5.21625 78.723 6.8575 80.2028 7.65375C81.6989 8.45 83.5202 8.23875 84.7886 7.1175C86.057 5.99625 86.5123 4.225 85.9107 2.6325C85.3252 1.05625 83.8129 0 82.1217 0Z" fill="#ED3F23"/>
<path d="M82.1216 9.76629C81.0971 9.66879 80.0726 9.97754 79.3083 10.6438C78.544 11.31 78.0887 12.2525 78.0562 13.2438V27.3813C78.3163 29.38 80.0563 30.875 82.1216 30.875C84.1868 30.875 85.9268 29.38 86.187 27.3813V13.2438C86.1545 12.2525 85.7154 11.2938 84.9348 10.6438C84.1705 9.97754 83.1461 9.66879 82.1216 9.76629Z" fill="#ED3F23"/>
<path d="M143.103 19.175C143.103 14.2675 140.42 9.75 133.817 9.75C128.061 9.75 123.589 13.3738 123.589 20.2638C123.589 27.1537 128.061 30.875 134.126 30.875C140.192 30.875 142.566 27.885 142.566 25.8213C142.599 25.1388 142.339 24.4887 141.851 24.0175C141.379 23.5462 140.712 23.3188 140.062 23.3675C137.688 23.3675 137.688 24.9275 134.435 24.9275C132.777 24.895 131.394 23.66 131.134 21.9862H140.013C140.81 22.0837 141.607 21.84 142.192 21.3037C142.794 20.7675 143.119 19.9875 143.119 19.175H143.103ZM130.89 18.1512C130.858 17.3387 131.151 16.5587 131.703 15.9738C132.256 15.3888 133.021 15.0475 133.817 15.0475C135.346 15.0475 136.452 16.1688 136.598 18.1512H130.907H130.89Z" fill="#ED3F23"/>
<path d="M167.918 18.2C165.398 17.5175 164.097 16.9812 164.097 16.12C164.097 15.5675 164.568 14.9662 165.528 14.9662C167.723 14.9662 167.756 17.1437 170.276 17.1437C171.073 17.2087 171.854 16.9325 172.423 16.3962C172.992 15.86 173.333 15.08 173.333 14.2837C173.333 11.7 170.813 9.76624 165.365 9.76624C159.918 9.76624 156.421 12.6912 156.421 16.3475C156.421 20.5237 159.56 21.3687 162.341 22.0675C164.503 22.62 166.438 23.3025 166.438 24.2287C166.438 25.155 165.902 25.48 164.617 25.48C162.357 25.48 161.918 22.8962 159.023 22.8962C158.259 22.8475 157.527 23.1237 156.974 23.66C156.421 24.1962 156.112 24.9275 156.112 25.7075C156.112 28.5187 158.942 30.8912 164.812 30.8912C170.683 30.8912 174 28.2425 174 24.4237C174.065 20.085 170.715 18.98 167.918 18.2162V18.2Z" fill="#ED3F23"/>
<path d="M150.42 0.0161991C149.396 -0.0813009 148.388 0.227449 147.623 0.877449C146.859 1.52745 146.388 2.4537 146.355 3.44495V27.3974C146.615 29.3799 148.355 30.8749 150.42 30.8749C152.486 30.8749 154.226 29.3799 154.486 27.3974V3.44495C154.453 2.4537 153.998 1.52745 153.217 0.877449C152.453 0.227449 151.429 -0.0813009 150.42 0.0161991Z" fill="#ED3F23"/>
<path d="M53.0616 31.0374V13.1949C53.0291 12.2199 52.5901 11.2774 51.842 10.6274C51.094 9.97745 50.0858 9.6687 49.0938 9.7662C48.053 9.7337 47.0286 10.0912 46.2155 10.7412C46.8009 11.2774 47.2887 11.9274 47.6465 12.6262L46.313 13.2437C44.9959 11.0337 42.5403 9.7012 39.9385 9.7987C34.5071 9.7987 30.897 14.1049 30.897 20.1662C30.897 26.2274 34.5071 30.5499 39.9385 30.5499C41.8086 30.5499 43.6136 29.9649 45.1097 28.8599V33.2312C45.1097 36.5787 46.4106 38.9837 50.0207 38.9837C53.3218 38.9837 55.2895 36.9849 55.2895 34.7099C55.322 33.1662 54.4602 31.7362 53.0616 31.0212V31.0374ZM41.9874 24.4562C39.9059 24.4562 38.605 22.7012 38.605 20.0849C38.605 17.4687 39.9222 15.6812 41.9874 15.6812C44.0527 15.6812 45.3861 17.4199 45.3861 20.0362C45.3861 22.6524 44.0689 24.4562 41.9874 24.4562Z" fill="#ED3F23"/>
<path d="M72.3645 9.76629C71.34 9.66879 70.3318 9.97754 69.5675 10.6438C68.8032 11.31 68.3478 12.2525 68.3316 13.2438V21.3688C68.3316 23.53 67.3071 24.6513 65.6647 24.6513C64.0222 24.6513 63.3718 23.6275 63.3718 22.2463V13.2438C63.0953 11.2775 61.3716 9.79879 59.3226 9.79879C57.2736 9.79879 55.5661 11.2613 55.2734 13.2438V22.0025C55.2734 27.625 57.7615 30.8425 62.8351 30.8425C67.0794 30.8425 68.4942 28.7463 69.1934 27.5113L70.4944 28.21C70.1854 28.7625 69.8114 29.2988 69.3886 29.77C70.2017 30.485 71.2749 30.875 72.3807 30.8425C73.4052 30.94 74.4134 30.6313 75.194 29.965C75.9583 29.2988 76.4136 28.3563 76.4299 27.3488V13.2438C76.3974 12.2363 75.9583 11.2938 75.1777 10.6275C74.3972 9.96129 73.3889 9.65254 72.3645 9.76629Z" fill="#ED3F23"/>
<path d="M101.213 9.76628C99.0501 9.96128 97.1638 11.2938 96.2856 13.2763L94.9684 12.6588C95.3099 11.96 95.749 11.3263 96.2694 10.7575C95.4725 10.1075 94.4643 9.75003 93.4236 9.78253C92.4153 9.68503 91.4234 9.99378 90.6591 10.66C89.8948 11.3263 89.4557 12.2688 89.4395 13.26V27.3975C89.6996 29.3963 91.4071 30.8913 93.4236 30.8913C95.44 30.8913 97.1638 29.3963 97.4077 27.3975V18.8988C97.2938 18.0538 97.7166 17.2088 98.4647 16.7863C98.8387 18.1675 100.156 19.0775 101.587 18.9313C102.725 18.8988 103.815 18.4113 104.579 17.5663C105.343 16.7213 105.734 15.6 105.636 14.4625C105.815 13.2275 105.425 11.96 104.563 11.05C103.701 10.14 102.449 9.66878 101.197 9.78253L101.213 9.76628Z" fill="#ED3F23"/>
<path d="M119.068 9.76631C116.905 9.96131 115.035 11.3101 114.157 13.2763L112.824 12.6588C113.165 11.9601 113.62 11.3263 114.141 10.7576C113.344 10.1076 112.336 9.75006 111.295 9.78256C110.303 9.68506 109.295 9.99381 108.547 10.6601C107.799 11.3263 107.343 12.2526 107.327 13.2601V27.3976C107.587 29.3963 109.295 30.8913 111.311 30.8913C113.328 30.8913 115.051 29.3963 115.295 27.3976V18.8988C115.182 18.0538 115.588 17.2088 116.336 16.7863C116.71 18.1676 118.027 19.0613 119.458 18.9313C120.597 18.8988 121.686 18.4113 122.451 17.5663C123.215 16.7213 123.605 15.6001 123.524 14.4626C123.719 13.2113 123.312 11.9601 122.434 11.0338C121.556 10.1076 120.304 9.65256 119.052 9.76631H119.068Z" fill="#ED3F23"/>
<path d="M7.04116 21.2712C7.83798 19.4187 9.44789 18.0862 11.383 17.7287C8.48845 15.795 6.73219 12.48 6.73219 8.90497C6.73219 8.17372 6.8135 7.44247 6.94359 6.72747C6.94359 6.56497 6.86228 6.48372 6.74845 6.51622C5.61013 6.97122 4.79705 8.01122 4.56938 9.24622C4.42303 8.57997 4.34172 7.89747 4.32546 7.19872C4.32546 7.01997 4.21163 6.97122 4.03275 7.06872C2.992 7.71872 2.39032 8.93747 2.48789 10.205C1.15443 11.0987 0.243777 12.545 0.0161133 14.17C0.0161133 16.7375 5.05723 14.95 5.05723 17.3875C5.05723 19.2075 1.26826 18.8337 1.26826 21.6287C1.26826 22.295 1.65854 22.75 2.00004 22.75C2.11387 22.75 2.21144 22.7012 2.27649 22.6037C3.52864 21.3037 5.36621 20.7837 7.07368 21.2712H7.04116Z" fill="#ED3F23"/>
<path d="M21.8393 12.5288C18.5707 11.1638 16.6356 10.14 16.6356 8.49877C16.538 7.34502 17.3999 6.30502 18.587 6.19127C19.9855 6.19127 20.6035 6.85752 20.8799 8.27127C20.9449 9.10002 21.3515 9.86377 22.002 10.3838C22.6524 10.9038 23.498 11.1313 24.3274 11.0175C25.482 11.0988 26.604 10.6925 27.4496 9.92877C28.2952 9.14877 28.7668 8.06002 28.7668 6.93877C28.7506 2.82752 25.0429 2.09119e-05 18.7171 2.09119e-05C16.0827 -0.146229 13.5134 0.780021 11.5782 2.53502C9.64308 4.30627 8.53729 6.76002 8.4885 9.36002C8.4885 14.1213 12.1636 16.8188 15.9689 18.5575C18.5057 19.955 20.6848 20.9138 20.6848 23.1888C20.6685 23.7575 20.4083 24.2775 19.9855 24.6675C19.5627 25.0413 18.9935 25.2525 18.4244 25.22C17.2373 25.22 16.7657 24.83 17.156 24.3588C17.5625 23.9038 17.7902 23.3188 17.7902 22.7013C17.7902 20.8975 16.0014 19.4025 13.4158 19.4025C10.1309 19.4025 8.34215 21.2713 8.34215 24.0338C8.45598 25.6588 9.26906 27.1538 10.57 28.1613H9.44794C8.0657 28.0963 6.84607 29.0225 6.5371 30.355C6.50458 30.485 6.5371 30.6313 6.63467 30.7288C6.71598 30.8263 6.86233 30.8913 6.99243 30.875H17.595C25.2543 30.875 29.2872 27.1375 29.2872 21.6125C29.2872 16.9163 25.9535 14.3325 21.8556 12.5288H21.8393Z" fill="#ED3F23"/>
</g>
<defs>
<clipPath id="clip0_1153_32">
<rect width="174" height="39" fill="white"/>
</clipPath>
</defs>
</svg>
